<?xml version="1.0" encoding="iso-8859-1"?>
<!-- Generator: Adobe Illustrator 19.0.0, SVG Export Plug-In . SVG Version: 6.00 Build 0)  -->
<svg version="1.1" id="Capa_1" xmlns="http://www.w3.org/2000/svg" xmlns:xlink="http://www.w3.org/1999/xlink" x="0px" y="0px"
	 viewBox="0 0 512.009 512.009" style="enable-background:new 0 0 512.009 512.009; fill: beige;" xml:space="preserve/">
<g>
	<g>
		<g>
			<path d="M82.286,429.732l27.367-0.001l0.061-0.012l0.061,0.012l36.456-0.001l0.054-0.011l0.054,0.011l36.47-0.002l0.047-0.01
				l0.047,0.009l36.484-0.001l0.04-0.008l0.04,0.008l36.498-0.002l0.033-0.007l0.033,0.007l36.512-0.002l0.026-0.005l0.026,0.005
				l36.526-0.001l0.019-0.004l0.019,0.004l36.54-0.002l0.012-0.002l0.012,0.002l36.554-0.001l0.003-0.001l0.007,0.001l27.424-0.001
				V82.29H82.286V429.732z M146.286,100.576c25.247,0,45.714,20.467,45.714,45.714s-20.467,45.714-45.714,45.714
				s-45.714-20.467-45.714-45.714C100.601,121.055,121.051,100.606,146.286,100.576z"/>
			<path d="M146.286,173.719c15.148,0,27.429-12.28,27.429-27.429s-12.28-27.429-27.429-27.429s-27.429,12.28-27.429,27.429
				C118.874,161.432,131.144,173.702,146.286,173.719z M137.875,142.813c0.42-1.129,1.074-2.156,1.92-3.013
				c2.616-2.637,6.567-3.429,9.997-2.005c3.43,1.424,5.658,4.782,5.637,8.496c-0.014,0.613-0.077,1.223-0.188,1.826
				c-0.096,0.574-0.28,1.129-0.545,1.647c-0.201,0.582-0.477,1.136-0.821,1.647c-0.366,0.455-0.732,0.911-1.098,1.371
				c-1.754,1.668-4.071,2.614-6.491,2.652c-2.424-0.017-4.748-0.967-6.491-2.651c-1.672-1.751-2.619-4.07-2.651-6.491
				C137.109,145.09,137.36,143.898,137.875,142.813z"/>
			<path d="M512,0.005H0v512h512.009L512,0.005z M475.429,137.147c5.049,0,9.143,4.093,9.143,9.143c0,5.049-4.093,9.143-9.143,9.143
				H448v18.286h27.429c5.049,0,9.143,4.093,9.143,9.143c0,5.049-4.093,9.143-9.143,9.143H448v18.286h27.429
				c5.049,0,9.143,4.093,9.143,9.143s-4.093,9.143-9.143,9.143H448v18.286h27.429c5.049,0,9.143,4.093,9.143,9.143
				c0,5.049-4.093,9.143-9.143,9.143H448v18.286h27.429c5.049,0,9.143,4.093,9.143,9.143c0,5.049-4.093,9.143-9.143,9.143H448
				v18.286h27.429c5.049,0,9.143,4.093,9.143,9.143s-4.093,9.143-9.143,9.143H448v18.286h27.429c5.049,0,9.143,4.093,9.143,9.143
				s-4.093,9.143-9.143,9.143H448v18.286h27.429c5.049,0,9.143,4.093,9.143,9.143c0,5.049-4.093,9.143-9.143,9.143H448v18.286
				c-0.012,10.094-8.192,18.274-18.286,18.286h-18.286v27.429c0,5.049-4.093,9.143-9.143,9.143c-5.049,0-9.143-4.093-9.143-9.143
				v-27.429h-18.286v27.429c0,5.049-4.093,9.143-9.143,9.143s-9.143-4.093-9.143-9.143v-27.429h-18.286v27.429
				c0,5.049-4.093,9.143-9.143,9.143S320,480.483,320,475.433v-27.429h-18.286v27.429c0,5.049-4.093,9.143-9.143,9.143
				c-5.049,0-9.143-4.093-9.143-9.143v-27.429h-18.286v27.429c0,5.049-4.093,9.143-9.143,9.143s-9.143-4.093-9.143-9.143v-27.429
				h-18.286v27.429c0,5.049-4.093,9.143-9.143,9.143s-9.143-4.093-9.143-9.143v-27.429H192v27.429c0,5.049-4.093,9.143-9.143,9.143
				c-5.049,0-9.143-4.093-9.143-9.143v-27.429h-18.286v27.429c0,5.049-4.093,9.143-9.143,9.143c-5.049,0-9.143-4.093-9.143-9.143
				v-27.429h-18.286v27.429c0,5.049-4.093,9.143-9.143,9.143s-9.143-4.093-9.143-9.143v-27.429H82.286
				c-10.094-0.012-18.274-8.192-18.286-18.286v-18.286H36.571c-5.049,0-9.143-4.093-9.143-9.143c0-5.049,4.093-9.143,9.143-9.143H64
				v-18.286H36.571c-5.049,0-9.143-4.093-9.143-9.143s4.093-9.143,9.143-9.143H64V338.29H36.571c-5.049,0-9.143-4.093-9.143-9.143
				s4.093-9.143,9.143-9.143H64v-18.286H36.571c-5.049,0-9.143-4.093-9.143-9.143c0-5.049,4.093-9.143,9.143-9.143H64v-18.286
				H36.571c-5.049,0-9.143-4.093-9.143-9.143c0-5.049,4.093-9.143,9.143-9.143H64v-18.286H36.571c-5.049,0-9.143-4.093-9.143-9.143
				s4.093-9.143,9.143-9.143H64v-18.286H36.571c-5.049,0-9.143-4.093-9.143-9.143c0-5.049,4.093-9.143,9.143-9.143H64v-18.286
				H36.571c-5.049,0-9.143-4.093-9.143-9.143c0-5.049,4.093-9.143,9.143-9.143H64v-18.286H36.571c-5.049,0-9.143-4.093-9.143-9.143
				s4.093-9.143,9.143-9.143H64V82.29c0.012-10.094,8.192-18.274,18.286-18.286h18.286V36.576c0-5.049,4.093-9.143,9.143-9.143
				s9.143,4.093,9.143,9.143v27.429h18.286V36.576c0-5.049,4.093-9.143,9.143-9.143c5.049,0,9.143,4.093,9.143,9.143v27.429h18.286
				V36.576c0-5.049,4.093-9.143,9.143-9.143c5.049,0,9.143,4.093,9.143,9.143v27.429h18.286V36.576c0-5.049,4.093-9.143,9.143-9.143
				s9.143,4.093,9.143,9.143v27.429h18.286V36.576c0-5.049,4.093-9.143,9.143-9.143s9.143,4.093,9.143,9.143v27.429h18.286V36.576
				c0-5.049,4.093-9.143,9.143-9.143c5.049,0,9.143,4.093,9.143,9.143v27.429H320V36.576c0-5.049,4.093-9.143,9.143-9.143
				s9.143,4.093,9.143,9.143v27.429h18.286V36.576c0-5.049,4.093-9.143,9.143-9.143s9.143,4.093,9.143,9.143v27.429h18.286V36.576
				c0-5.049,4.093-9.143,9.143-9.143c5.049,0,9.143,4.093,9.143,9.143v27.429h18.286c10.094,0.012,18.274,8.192,18.286,18.286
				v18.286h27.429c5.049,0,9.143,4.093,9.143,9.143s-4.093,9.143-9.143,9.143H448v18.286H475.429z"/>
		</g>
	</g>
</g>
<g>
</g>
<g>
</g>
<g>
</g>
<g>
</g>
<g>
</g>
<g>
</g>
<g>
</g>
<g>
</g>
<g>
</g>
<g>
</g>
<g>
</g>
<g>
</g>
<g>
</g>
<g>
</g>
<g>
</g>
</svg>
